:SAMPLES-PER-SECOND 30
:FRAME-RANGE 1-2009
:FULLY-SPECIFIED
:DEGREES
503
root  6.26662 38.388 -24.5012 -177.8 21.4457 -177.673
RightUpLeg  -24.4178 -5.58413 8.71191
RightLeg  23.849 -7.67836 -3.91534
RightFoot  -3.8192 0.1864 -3.22657
RightToes  2.96424e-010 1.2921e-014 -6.02303e-014
Spine  -9.74835 -3.75744 1.98177
Spine1  9.74098 -4.77664 2.67271
HEad  12.6786 13.3367 -3.89406
LeftShoulder1  2.03982 -4.85485 -18.705
LeftArm  -1.75464 -15.8922 -57.5391
LeftForeArm  -134.756 -0.497284 -10.0357
LeftHand  -64.9603 -20.5946 141.545
RightShoulder  1.61211 1.28795 29.1495
RightArm  -35.5875 -2.63562 50.2025
RightForeArm  72.0226 -4.16422 -2.71447
RightHand  0.359626 -7.74908 -18.4073
LeftUpLeg  1.18756 4.53786 5.03224
LeftLeg  46.9843 2.73561 3.57062
LeftFoot  1.35887 2.20107 -19.6844
LeftToes  -1.2485e-010 1.20979e-011 -1.0929e-011
504
root  6.7025 38.5968 -25.5338 -177.003 23.0816 -176.016
RightUpLeg  -21.6844 -6.34011 10.5451
RightLeg  22.0024 -5.67667 -2.73948
RightFoot  -4.69179 0.182256 -3.68082
RightToes  2.96424e-010 1.2921e-014 -6.02303e-014
Spine  -8.61524 -3.41724 5.0862
Spine1  10.3096 -4.35146 3.06414
HEad  10.9305 14.6501 -3.8585
LeftShoulder1  1.93518 -4.2482 -19.3742
LeftArm  -1.8199 -11.3462 -57.0544
LeftForeArm  -136.23 1.43095 -9.44775
LeftHand  -60.8187 -19.3205 140.444
RightShoulder  1.65866 1.40074 29.3063
RightArm  -35.7217 -3.96237 48.6142
RightForeArm  71.8181 -4.1639 -2.763
RightHand  0.362668 -7.8092 -18.1238
LeftUpLeg  -4.96231 3.45979 5.92647
LeftLeg  55.5604 2.93426 5.10585
LeftFoot  14.918 3.08163 -13.5561
LeftToes  -1.2485e-010 1.20979e-011 -1.0929e-011
505
root  7.18896 38.8066 -26.6627 -176.576 25.7073 -175.339
RightUpLeg  -18.683 -4.43638 10.4491
RightLeg  20.5454 -5.47947 -1.32709
RightFoot  -5.89625 0.149496 -3.97894
RightToes  2.96424e-010 1.2921e-014 -6.02303e-014
Spine  -7.88889 -2.73957 7.42491
Spine1  10.6791 -3.33919 2.26763
HEad  9.54763 16.0273 -3.42478
LeftShoulder1  1.76924 -3.36557 -20.34
LeftArm  -1.35315 -6.87161 -55.9785
LeftForeArm  -136.083 2.53262 -10.0413
LeftHand  -59.5164 -18.6119 140.567
RightShoulder  1.73658 1.55096 29.8401
RightArm  -34.8973 -5.00524 47.0737
RightForeArm  71.7192 -4.26603 -2.19727
RightHand  0.343196 -7.65461 -18.3358
LeftUpLeg  -10.0993 3.03501 5.88939
LeftLeg  61.5146 2.04286 4.683
LeftFoot  20.059 3.19334 -11.7738
LeftToes  -1.2485e-010 1.20979e-011 -1.0929e-011
506
root  7.67054 38.971 -27.8015 -176.318 29.1375 -175.097
RightUpLeg  -15.928 -2.10633 10.0144
RightLeg  19.5597 -4.65771 -0.0681691
RightFoot  -7.18557 0.104847 -4.22476
RightToes  2.96424e-010 1.2921e-014 -6.02303e-014
Spine  -7.25792 -1.92952 9.46407
Spine1  10.891 -2.08614 0.870614
HEad  8.52851 17.5515 -3.15314
LeftShoulder1  1.57701 -2.41942 -21.4315
LeftArm  -1.73137 -1.74881 -54.6523
LeftForeArm  -135.094 2.57285 -10.1438
LeftHand  -57.7244 -17.8333 140.449
RightShoulder  1.86844 1.91417 29.8918
RightArm  -34.7666 -5.52726 46.5174
RightForeArm  72.8652 -4.23344 -2.12167
RightHand  0.22975 -6.86545 -19.0694
LeftUpLeg  -14.3264 3.17468 5.47272
LeftLeg  65.2245 0.893184 2.80368
LeftFoot  13.1795 2.40935 -11.4313
LeftToes  -1.2485e-010 1.20979e-011 -1.0929e-011
507
root  8.17729 39.136 -28.9887 -176.428 32.4915 -175.359
RightUpLeg  -13.0002 -1.1173 9.20031
RightLeg  18.5978 -2.79812 1.29874
RightFoot  -8.45655 0.071896 -5.1177
RightToes  2.96424e-010 1.2921e-014 -6.02303e-014
Spine  -6.34625 -1.20113 10.6521
Spine1  10.5508 -0.964838 -0.299876
HEad  7.72289 18.8922 -3.35265
LeftShoulder1  1.43793 -1.71938 -22.5645
LeftArm  -2.24443 4.13329 -53.1642
LeftForeArm  -134.876 2.4721 -9.49385
LeftHand  -54.6265 -17.2659 138.946
RightShoulder  1.80831 1.80427 29.4709
RightArm  -34.0975 -5.53652 46.7503
RightForeArm  72.8843 -4.31425 -1.65006
RightHand  0.383198 -7.81215 -19.0048
LeftUpLeg  -17.9079 2.59783 4.59613
LeftLeg  65.8735 0.712576 2.44476
LeftFoot  8.0787 1.62909 -9.79158
LeftToes  -1.2485e-010 1.20979e-011 -1.0929e-011
508
root  8.70291 39.1998 -30.1889 -176.671 35.4651 -176.035
RightUpLeg  -11.1279 -1.77478 8.50049
RightLeg  19.3858 0.846429 1.79119
RightFoot  -10.5441 -0.0346565 -5.24497
RightToes  2.96424e-010 1.2921e-014 -6.02303e-014
Spine  -6.1887 -0.993628 10.9863
Spine1  10.7721 -0.439846 -1.63648
HEad  7.0337 20.7421 -3.54953
LeftShoulder1  1.13922 -0.547469 -23.5627
LeftArm  -2.20918 9.78669 -51.6078
LeftForeArm  -131.792 2.80346 -11.0496
LeftHand  -57.0041 -16.6042 141.911
RightShoulder  1.92161 2.17449 29.1508
RightArm  -33.7099 -5.24764 47.443
RightForeArm  72.9957 -4.36094 -1.3535
RightHand  0.337203 -7.54864 -18.858
LeftUpLeg  -21.3241 1.45511 3.68654
LeftLeg  64.1892 1.52322 4.09035
LeftFoot  5.38698 1.23306 -8.59875
LeftToes  -1.2485e-010 1.20979e-011 -1.0929e-011
509
root  9.23005 39.2771 -31.3725 -177.123 38.5125 -176.944
RightUpLeg  -9.02749 -2.11485 7.36167
RightLeg  19.6631 4.07869 2.27298
RightFoot  -12.31 -0.129766 -5.51516
RightToes  2.96424e-010 1.2921e-014 -6.02303e-014
Spine  -5.51777 -0.531319 10.9522
Spine1  10.1418 0.26881 -2.87042
HEad  6.68767 21.899 -3.76519
LeftShoulder1  0.873441 0.426801 -24.3715
LeftArm  -3.02424 15.5174 -50.6818
LeftForeArm  -130.325 2.83631 -11.0077
LeftHand  -56.2616 -16.089 142.214
RightShoulder  1.90161 2.16264 28.8521
RightArm  -32.5333 -4.99379 47.9836
RightForeArm  72.1636 -4.5396 -0.508111
RightHand  0.394209 -7.99229 -18.2513
LeftUpLeg  -23.9578 0.176741 2.85843
LeftLeg  60.1346 3.45625 7.05593
LeftFoot  2.30359 0.920009 -7.7994
LeftToes  -1.2485e-010 1.20979e-011 -1.0929e-011
510
root  9.8021 39.3416 -32.541 -177.632 41.2951 -177.81
RightUpLeg  -6.79128 -2.03049 6.15495
RightLeg  19.6433 6.55651 2.58625
RightFoot  -13.821 -0.221377 -5.91161
RightToes  2.96424e-010 1.2921e-014 -6.02303e-014
Spine  -5.5935 0.00643742 10.5897
Spine1  10.4657 0.936578 -3.7599
HEad  6.09626 22.6672 -4.10182
LeftShoulder1  0.627099 1.27862 -24.9956
LeftArm  -4.69006 20.5003 -50.3003
LeftForeArm  -128.76 2.86121 -10.8907
LeftHand  -55.4169 -15.1662 143.15
RightShoulder  1.92826 2.30116 28.4606
RightArm  -31.4358 -4.52826 48.6638
RightForeArm  71.1547 -4.71058 0.257781
RightHand  0.3435 -7.71116 -17.943
LeftUpLeg  -25.7054 -1.35916 2.47189
LeftLeg  54.0547 6.38969 9.84401
LeftFoot  -0.457084 0.404384 -4.21588
LeftToes  -1.2485e-010 1.20979e-011 -1.0929e-011
511
root  10.3986 39.3628 -33.7001 -178.222 43.4503 -178.678
RightUpLeg  -4.5342 -1.98624 4.78542
RightLeg  19.5053 8.68499 2.99227
RightFoot  -15.3496 -0.307822 -5.82886
RightToes  2.96424e-010 1.2921e-014 -6.02303e-014
Spine  -6.07939 0.38374 10.0451
Spine1  11.3218 1.43568 -4.58917
HEad  5.36955 23.1285 -4.28251
LeftShoulder1  0.471734 1.79021 -25.1999
LeftArm  -6.41115 24.8612 -50.5071
LeftForeArm  -130.977 2.4932 -9.01335
LeftHand  -52.2551 -15.4358 140.214
RightShoulder  1.90957 2.2539 28.4136
RightArm  -30.3201 -3.52384 49.3604
RightForeArm  70.3776 -4.85865 0.948526
RightHand  0.327109 -7.57237 -18.1822
LeftUpLeg  -26.6079 -3.32329 2.53674
LeftLeg  45.7453 8.83172 9.97625
LeftFoot  -2.33826 0.219161 -2.60542
LeftToes  -1.2485e-010 1.20979e-011 -1.0929e-011
512
root  11.0069 39.3829 -34.8268 -178.781 45.0249 -179.803
RightUpLeg  -2.45531 -1.81853 3.19161
RightLeg  19.0178 10.1519 3.2102
RightFoot  -16.6704 -0.389574 -5.94546
RightToes  2.96424e-010 1.2921e-014 -6.02303e-014
Spine  -6.37044 0.601881 8.76165
Spine1  11.515 1.64199 -4.88612
HEad  4.96696 23.5309 -4.44585
LeftShoulder1  0.338103 2.22394 -25.3444
LeftArm  -7.5914 28.6544 -50.7613
LeftForeArm  -129.886 2.43307 -8.46822
LeftHand  -50.3917 -15.0971 139.273
RightShoulder  1.9115 2.26552 28.3758
RightArm  -29.1484 -2.89848 49.9075
RightForeArm  69.614 -5.01279 1.68327
RightHand  0.312215 -7.46302 -18.2908
LeftUpLeg  -26.8662 -6.02252 2.78765
LeftLeg  35.1737 10.7147 8.36228
LeftFoot  -1.19459 0.329974 -3.63614
LeftToes  -1.2485e-010 1.20979e-011 -1.0929e-011
513
root  11.6451 39.3717 -35.9677 -179.256 45.9592 179.446
RightUpLeg  0.0640355 -1.54074 1.94746
RightLeg  17.9725 11.0193 3.08132
RightFoot  -17.7757 -0.432712 -5.55657
RightToes  2.96424e-010 1.2921e-014 -6.02303e-014
Spine  -6.75938 0.73548 7.69968
Spine1  12.0295 1.79409 -5.12229
HEad  4.62745 23.5666 -4.53655
LeftShoulder1  0.275337 2.42277 -25.2819
LeftArm  -9.14338 31.732 -51.3007
LeftForeArm  -125.438 2.39498 -7.46017
LeftHand  -43.9598 -13.8932 135.662
RightShoulder  1.86712 2.1425 28.3307
RightArm  -28.1728 -2.1866 50.5376
RightForeArm  68.8242 -5.14117 2.2643
RightHand  0.271036 -7.17801 -18.4936
LeftUpLeg  -26.3258 -8.95165 3.28125
LeftLeg  24.0846 14.6679 7.37516
LeftFoot  0.69335 0.243553 -2.35084
LeftToes  -1.2485e-010 1.20979e-011 -1.0929e-011
514
root  12.2693 39.2756 -37.1211 -179.09 46.3616 179.355
RightUpLeg  2.27384 -1.07592 1.2316
RightLeg  17.1898 11 2.85345
RightFoot  -19.0146 -0.490861 -5.39862
RightToes  2.96424e-010 1.2921e-014 -6.02303e-014
Spine  -7.37036 0.808347 7.14672
Spine1  12.6023 1.8554 -5.30641
HEad  4.35884 23.4822 -4.58254
LeftShoulder1  0.2565 2.4815 -25.2202
LeftArm  -10.3707 33.8776 -51.7958
LeftForeArm  -121.333 2.48929 -7.245
LeftHand  -39.1012 -12.3019 133.97
RightShoulder  1.86676 2.14843 28.2856
RightArm  -27.3189 -1.77534 50.9865
RightForeArm  67.9363 -5.26192 2.78177
RightHand  0.274395 -7.18914 -18.5866
LeftUpLeg  -25.812 -8.8512 2.80677
LeftLeg  13.7701 16.8853 5.76687
LeftFoot  -0.449466 0.226153 -2.3443
LeftToes  -1.2485e-010 1.20979e-011 -1.0929e-011
